<svg width="27" height="28" viewBox="0 0 27 28" xmlns="http://www.w3.org/2000/svg">
<path d="M8.77505 10.625C9.17394 10.625 9.56892 10.5464 9.93745 10.3938C10.306 10.2411 10.6408 10.0174 10.9229 9.73534C11.2049 9.45328 11.4287 9.11843 11.5813 8.7499C11.734 8.38137 11.8125 7.98639 11.8125 7.5875C11.8125 7.18861 11.734 6.79362 11.5813 6.4251C11.4287 6.05657 11.2049 5.72172 10.9229 5.43966C10.6408 5.1576 10.306 4.93386 9.93745 4.78122C9.56892 4.62857 9.17394 4.55 8.77505 4.55C7.96945 4.55 7.19685 4.87002 6.62721 5.43966C6.05757 6.0093 5.73755 6.7819 5.73755 7.5875C5.73755 8.39309 6.05757 9.16569 6.62721 9.73534C7.19685 10.305 7.96945 10.625 8.77505 10.625ZM8.77505 9.275C8.3275 9.275 7.89827 9.09721 7.58181 8.78074C7.26534 8.46427 7.08755 8.03505 7.08755 7.5875C7.08755 7.13995 7.26534 6.71072 7.58181 6.39426C7.89827 6.07779 8.3275 5.9 8.77505 5.9C9.2226 5.9 9.65182 6.07779 9.96829 6.39426C10.2848 6.71072 10.4625 7.13995 10.4625 7.5875C10.4625 8.03505 10.2848 8.46427 9.96829 8.78074C9.65182 9.09721 9.2226 9.275 8.77505 9.275ZM4.05005 12.65C4.05005 12.292 4.19228 11.9486 4.44545 11.6954C4.69863 11.4422 5.04201 11.3 5.40005 11.3H12.15C12.5081 11.3 12.8515 11.4422 13.1046 11.6954C13.3578 11.9486 13.5 12.292 13.5 12.65V18.725C13.5 19.3455 13.3778 19.9599 13.1404 20.5332C12.9029 21.1064 12.5549 21.6273 12.1161 22.0661C11.6774 22.5048 11.1565 22.8529 10.5832 23.0903C10.01 23.3278 9.39555 23.45 8.77505 23.45C8.15455 23.45 7.54013 23.3278 6.96687 23.0903C6.39361 22.8529 5.87273 22.5048 5.43397 22.0661C4.99521 21.6273 4.64717 21.1064 4.40972 20.5332C4.17226 19.9599 4.05005 19.3455 4.05005 18.725V12.65ZM5.40005 12.65V18.725C5.40005 19.6201 5.75563 20.4785 6.38856 21.1115C7.0215 21.7444 7.87994 22.1 8.77505 22.1C9.67015 22.1 10.5286 21.7444 11.1615 21.1115C11.7945 20.4785 12.15 19.6201 12.15 18.725V12.65H5.40005ZM12.9951 8.79305C12.8761 9.20887 12.6959 9.60469 12.4605 9.96755C13.0181 10.0323 13.523 10.2645 13.9239 10.6155C14.4115 10.6558 14.9016 10.5778 15.3525 10.388C15.8034 10.1982 16.2018 9.90233 16.5138 9.52551C16.8258 9.14869 17.0421 8.70208 17.1445 8.22369C17.2468 7.74529 17.232 7.24925 17.1015 6.77778C16.9709 6.3063 16.7284 5.87333 16.3946 5.51571C16.0608 5.15808 15.6455 4.88638 15.1841 4.72371C14.7228 4.56104 14.2289 4.51221 13.7446 4.58139C13.2603 4.65057 12.7999 4.83571 12.4025 5.12105C12.663 5.50175 12.8642 5.927 12.9951 6.38195C13.2326 6.14964 13.5333 5.99258 13.8596 5.93045C14.186 5.86832 14.5234 5.90388 14.8296 6.03268C15.1358 6.16148 15.3971 6.37779 15.5809 6.65449C15.7647 6.93119 15.8628 7.25599 15.8628 7.58817C15.8628 7.92036 15.7647 8.24515 15.5809 8.52186C15.3971 8.79856 15.1358 9.01487 14.8296 9.14367C14.5234 9.27246 14.186 9.30803 13.8596 9.24589C13.5333 9.18376 13.2326 9.02536 12.9951 8.79305ZM12.8237 23.2542C13.5291 23.4648 14.274 23.5076 14.9989 23.3792C15.7238 23.2509 16.4086 22.9549 16.9989 22.515C17.5891 22.075 18.0684 21.5032 18.3985 20.8452C18.7285 20.1872 18.9003 19.4612 18.9 18.725V12.65C18.9 12.292 18.7578 11.9486 18.5046 11.6954C18.2515 11.4422 17.9081 11.3 17.55 11.3H14.4896C14.7191 11.6969 14.8514 12.1586 14.8514 12.65H17.5514V18.725C17.5515 19.1967 17.4527 19.6633 17.2614 20.0945C17.0701 20.5257 16.7905 20.912 16.4407 21.2284C16.0909 21.5449 15.6786 21.7846 15.2305 21.9319C14.7823 22.0792 14.3083 22.131 13.8389 22.0838C13.5513 22.5158 13.2111 22.9086 12.8264 23.2542H12.8237ZM18.3951 8.79305C18.2761 9.20886 18.0959 9.60467 17.8605 9.96755C18.4181 10.0323 18.923 10.2645 19.3239 10.6155C19.8115 10.6558 20.3016 10.5778 20.7525 10.388C21.2034 10.1982 21.6018 9.90233 21.9138 9.52551C22.2258 9.14869 22.4421 8.70208 22.5445 8.22369C22.6468 7.74529 22.632 7.24925 22.5015 6.77778C22.3709 6.3063 22.1284 5.87333 21.7946 5.51571C21.4608 5.15808 21.0455 4.88638 20.5841 4.72371C20.1228 4.56104 19.6289 4.51221 19.1446 4.58139C18.6603 4.65057 18.1999 4.83571 17.8025 5.12105C18.063 5.50175 18.2642 5.927 18.3951 6.38195C18.6326 6.14964 18.9333 5.99258 19.2596 5.93045C19.586 5.86832 19.9234 5.90388 20.2296 6.03268C20.5358 6.16148 20.7971 6.37779 20.9809 6.65449C21.1647 6.93119 21.2628 7.25599 21.2628 7.58817C21.2628 7.92036 21.1647 8.24515 20.9809 8.52186C20.7971 8.79856 20.5358 9.01487 20.2296 9.14367C19.9234 9.27246 19.586 9.30803 19.2596 9.24589C18.9333 9.18376 18.6326 9.02536 18.3951 8.79305ZM18.2237 23.2542C18.9291 23.4648 19.674 23.5076 20.3989 23.3792C21.1238 23.2509 21.8086 22.9549 22.3989 22.515C22.9891 22.075 23.4684 21.5032 23.7985 20.8452C24.1285 20.1872 24.3003 19.4612 24.3 18.725V12.65C24.3 12.292 24.1578 11.9486 23.9046 11.6954C23.6515 11.4422 23.3081 11.3 22.95 11.3H19.8896C20.1191 11.6969 20.2514 12.1586 20.2514 12.65H22.9514V18.725C22.9515 19.1967 22.8527 19.6633 22.6614 20.0945C22.4701 20.5257 22.1905 20.912 21.8407 21.2284C21.4909 21.5449 21.0786 21.7846 20.6305 21.9319C20.1823 22.0792 19.7083 22.131 19.2389 22.0838C18.9513 22.5158 18.6111 22.9086 18.2264 23.2542H18.2237Z"/>
</svg>
