<svg width="31" height="32" viewBox="0 0 31 32" xmlns="http://www.w3.org/2000/svg">
<path d="M0.96875 10.1875H13.5625L14.5313 12.125H1.9375L0.96875 10.1875ZM2.26042 14.0625H14.8542L15.8229 16H3.22917L2.26042 14.0625ZM23.25 24.3958C24.3221 24.3958 25.1875 23.5304 25.1875 22.4583C25.1875 21.3862 24.3221 20.5208 23.25 20.5208C22.1779 20.5208 21.3125 21.3862 21.3125 22.4583C21.3125 23.5304 22.1779 24.3958 23.25 24.3958ZM25.1875 12.7708H21.9583V16H27.7192L25.1875 12.7708ZM10.3333 24.3958C11.4054 24.3958 12.2708 23.5304 12.2708 22.4583C12.2708 21.3862 11.4054 20.5208 10.3333 20.5208C9.26125 20.5208 8.39583 21.3862 8.39583 22.4583C8.39583 23.5304 9.26125 24.3958 10.3333 24.3958ZM25.8333 10.8333L29.7083 16V22.4583H27.125C27.125 24.6025 25.3942 26.3333 23.25 26.3333C21.1058 26.3333 19.375 24.6025 19.375 22.4583H14.2083C14.2083 24.6025 12.4646 26.3333 10.3333 26.3333C8.18917 26.3333 6.45833 24.6025 6.45833 22.4583H3.875V17.9375H6.45833V19.875H7.44C8.15042 19.0871 9.18375 18.5833 10.3333 18.5833C11.4829 18.5833 12.5162 19.0871 13.2267 19.875H19.375V8.25H3.875C3.875 6.81625 5.02458 5.66666 6.45833 5.66666H21.9583V10.8333H25.8333Z"/>
</svg>
