<svg fill="none" xmlns="http://www.w3.org/2000/svg" viewBox="11.43 117.05 186.6 62.33">
<path fill-rule="evenodd" clip-rule="evenodd" d="M41.2849 165.289C34.5141 165.553 29.0577 159.251 24.4598 153.152C24.4022 153.007 23.4665 151.679 23.6589 151.269C25.38 145.903 27.0157 144.412 28.6631 140.391C29.8726 137.641 36.5283 131.429 39.4747 131.806L39.4887 132.1C35.3469 135.535 40.1765 134.381 42.9365 133.926C48.831 133.478 53.9939 133.827 59.4106 136.883C60.519 136.662 63.2768 140.697 63.1599 140.961C62.7077 141.431 59.8902 140.214 59.7438 141.165C60.4755 142.657 61.0741 143.782 61.8177 145.287C63.8439 150.655 63.6852 154.528 60.8539 159.424C60.6931 159.704 60.051 160.816 59.7733 160.538C59.1009 159.847 59.6125 158.257 59.3369 157.76C59.1606 157.455 59.3074 157.496 59.0574 157.703C57.0014 159.267 54.7688 160.713 52.5203 161.97C49.0192 163.798 45.1649 165.289 41.2849 165.289ZM53.4546 179.06C54.595 177.307 58.9707 171.693 55.834 171.107C54.2716 170.888 50.3042 172.072 46.6262 172.51C38.7746 173.491 29.7434 173.009 22.4592 169.617L22.4294 169.454C23.2046 169.032 26.4445 169.385 26.2995 167.745C26.1963 166.633 24.9552 165.845 24.182 165.23C18.3451 160.595 13.297 154.264 11.8674 146.78C10.1463 137.715 14.0881 128.388 19.6891 121.428C19.7765 121.326 19.9647 121.4 20.1827 121.557C23.2759 123.286 25.4211 122.597 27.1281 122.204C39.27 118.622 44.5382 116.91 57.0312 117.085C57.291 117.085 61.0878 117.159 60.7209 117.494C60.342 117.846 58.1828 118.795 57.3799 119.119C56.2279 119.587 54.1698 120.375 52.9167 121.045C50.8407 122.174 47.8508 124.076 51.5864 125.184C63.2765 128.577 71.8555 132.086 78.5534 143.052C78.6724 143.272 78.6562 143.357 78.3926 143.272C74.7763 142.07 74.336 142.466 74.336 146.415C74.4094 147.791 74.4687 149.163 74.4687 150.537C74.4392 159.748 70.2356 167.6 63.1873 173.565C60.2866 176.021 57.0309 178.008 53.6902 179.311C53.3377 179.442 53.2229 179.412 53.4546 179.06Z" fill="#151717"/>
<path fill-rule="evenodd" clip-rule="evenodd" d="M43.0334 164.69C43.8406 164.809 44.5821 164.864 45.5753 164.634C50.6687 163.417 55.104 160.334 58.0662 157.657C60.4158 155.481 60.487 158.912 60.4593 160.085C60.4593 160.361 60.6043 160.319 60.7806 160.097C61.5242 159.178 62.3707 155.757 62.6501 154.396C63.6118 149.498 61.9206 146.119 59.5552 142.017C57.7471 139.088 61.7004 139.835 62.9258 140.407C63.6553 140.742 63.5525 140.77 62.9398 140.202C57.2773 134.937 49.2808 133.446 41.7961 134.397C40.7018 134.528 38.9947 134.863 38.5109 134.776C36.9802 134.44 38.3522 132.671 39.2268 131.94C36.8057 132.89 34.6587 134.293 32.8801 135.727C29.4657 138.445 27.4792 142.744 26.256 147.086L24.4457 152.657L24.6065 153.151C34.0917 159.293 39.1552 163.973 43.0334 164.69ZM58.911 175.757C61.1892 173.698 64.5871 166.81 62.5908 166.268C61.877 166.091 61.205 166.516 60.0945 167.059C58.5778 167.789 56.724 168.899 54.6223 169.618C49.4138 171.401 44.4076 172.264 39.4887 172.354C37.3593 172.395 35.3469 172.216 33.3621 171.972C31.9623 171.704 31.6828 171.575 33.3186 171.329C36.2787 170.962 42.9783 168.814 39.243 167.994C37.7403 167.702 37.3316 167.658 35.9458 167.293C25.9628 164.896 16.2617 158.856 13.2837 148.961C10.2025 138.767 14.8738 128.885 19.2495 123.252C19.1364 125.171 18.8728 128.796 23.1316 126.255C30.882 121.469 37.6806 118.855 46.8744 117.641C50.0248 117.217 53.106 117.099 56.2883 117.129C57.1327 117.145 57.9497 117.159 58.6515 117.191C59.8607 117.246 60.6342 117.365 60.6201 117.435L60.4319 117.613C59.6862 117.99 58.8832 118.3 58.0943 118.606C53.0898 120.564 39.3142 125.696 49.2931 126.647C57.6579 127.642 65.4343 129.951 71.654 135.711C72.5145 136.4 73.4881 137.641 73.4323 137.758C73.4165 137.758 72.8196 137.42 72.3678 137.218C70.0916 136.062 63.8302 134.486 66.9967 137.714C78.4786 149.935 72.7901 166.736 58.957 175.83C58.5483 176.108 58.5343 176.094 58.911 175.757Z" fill="#A01D21"/>
<path fill-rule="evenodd" clip-rule="evenodd" d="M61.4508 140.58C61.9206 140.667 62.444 140.83 62.7793 140.949C62.9538 140.977 56.6941 132.247 40.8903 134.032C37.3154 134.367 39.1991 132.277 41.3583 131.53C42.5401 131.133 42.9505 130.99 41.2709 131.385C40.4957 131.558 39.7384 131.808 39.0084 132.086C31.7717 135.316 27.7291 140.349 25.3954 147.511C25.1893 148.23 24.6957 149.528 24.2852 150.773C23.9482 151.621 23.7755 153.388 22.4887 149.937C22.5761 150.728 23.0459 152.133 23.7021 153.169C23.7755 153.287 23.8766 153.388 24.0788 153.549C27.1439 156.035 30.4866 158.036 34.718 160.976C35.4915 161.604 38.045 162.904 39.3437 163.842C39.8553 164.253 39.4329 164.413 38.6714 164.455C37.8842 164.5 37.228 164.382 36.4686 164.207C30.3697 162.805 24.5486 159.686 20.1093 155.258C20.2859 155.479 20.4622 155.683 20.6349 155.888C21.7451 157.116 22.9725 158.231 24.2849 159.235C26.6481 160.99 29.3466 162.41 31.9458 163.345C34.4839 164.236 37.1406 164.762 39.7973 164.894L39.5614 164.925C44.0007 165.128 47.282 164.367 50.5675 162.892C52.6376 161.957 54.5648 160.772 56.5632 159.207C57.1758 158.753 58.911 157.188 59.3944 157.468C59.8744 157.73 59.7136 159.251 59.7733 160.186C59.7873 160.377 59.9477 160.42 60.0664 160.273C61.4662 158.578 62.1505 156.503 62.6498 154.63C63.6251 149.732 62.5746 146.5 60.1675 142.422C59.0735 140.596 59.8312 140.286 61.4508 140.58ZM59.5556 117.889C52.9174 120.373 46.2319 122.248 40.4521 126.092C39.461 126.795 38.8322 127.436 40.4381 127.291C51.5292 126.149 61.8475 128.431 70.6309 135.245C71.2435 135.727 71.2 135.682 70.514 135.39C67.7838 134.205 65.6267 133.404 62.3868 132.599C58.3145 131.574 55.3105 131.473 60.7075 134.997C66.7193 138.926 71.0234 143.973 71.7252 151.621C71.8285 152.598 71.8562 153.607 71.8285 154.687C71.7986 155.084 71.7691 155.495 71.7115 155.904C71.0673 163.082 66.9553 168.697 61.7882 173.375C60.4874 174.544 60.3726 174.53 61.6137 173.23C64.473 170.23 66.4002 166.489 67.5679 162.452C69.0113 157.439 68.2677 152.789 66.6182 153.143C66.1642 153.244 65.9181 153.855 65.5554 154.792C64.6177 157.262 63.3646 159.135 61.6576 161.136C57.7021 165.756 51.413 168.373 45.4451 170.333C46.7715 170.216 49.3412 169.251 50.7866 168.728C56.9747 166.165 60.8824 163.753 64.6774 158.741C65.2328 157.981 65.1015 158.549 64.5464 159.414C61.4374 164.619 55.2515 168.77 46.597 170.783C43.6489 171.446 40.4823 171.546 37.4626 171.695C35.4322 171.796 35.3174 171.707 37.4327 171.371C40.9342 170.815 44.2633 170.011 47.2827 167.98C48.7281 167.013 47.4572 167.013 46.7711 167.072C42.2188 167.479 37.9285 167.233 33.5089 166.048C21.2915 162.22 12.0559 154.032 12.9898 140.449C13.428 134.763 15.7796 129.249 17.8493 125.814C17.5144 126.823 16.8122 129.718 16.723 132.1C16.6514 134.395 16.9726 135.654 17.9799 134.294C18.3605 133.754 18.6523 133.387 19.0448 132.876C27.291 122.554 40.1031 118.402 53.2229 117.57C57.4104 117.263 58.8695 117.348 59.8013 117.435C60.8104 117.538 60.1682 117.628 59.5556 117.889Z" fill="#DB4D26"/>
<path fill-rule="evenodd" clip-rule="evenodd" d="M39.4171 125.508C37.5216 126.475 35.1724 128.021 33.9151 129.411C33.3025 130.169 33.5521 130.346 35.0116 129.717C45.1098 125.785 56.9006 128.228 65.2897 132.159C67.2923 133.138 67.1136 133.372 65.0576 132.568C60.5032 130.725 45.5023 129.147 55.1181 133.124C56.5913 133.74 58.0069 134.427 59.3513 135.185C67.0104 139.585 71.9872 146.5 71.0533 156.414C71.0115 158.534 69.3203 163.345 67.4942 166.006C66.37 167.774 66.3265 167.715 67.2305 165.962C70.6607 159.134 71.4497 152.349 67.9166 145.406C65.817 141.252 62.4307 138.022 58.1238 135.917C55.9646 134.865 53.5715 134.089 50.9882 133.62C48.1015 133.109 44.3641 133.227 41.4752 133.385C39.9884 133.459 39.679 133.183 40.5255 132.464C41.4159 131.72 44.3918 130.506 48.494 130.464C48.962 130.476 50.4348 130.506 50.0841 130.419C36.6315 130.01 29.0258 136.018 25.2926 145.375C24.6638 146.94 24.2396 148.475 23.8629 150.099L23.4823 151.018L22.9845 150.288C22.6931 149.484 22.4729 148.417 22.4592 147.582C22.243 137.86 30.1538 128.212 39.4171 125.508ZM59.5398 117.598C59.6708 117.612 59.6708 117.685 59.2343 117.86C52.4178 119.967 44.3641 122.073 37.7238 125.141C33.7406 126.971 30.6018 129.03 27.7587 132.394C19.2607 142.466 19.5423 154.865 31.5357 162.367C31.639 162.438 31.9026 162.643 31.6249 162.539C18.9732 156.954 11.8811 143.256 22.2703 131.063C32.4718 120.01 47.8673 117.745 59.5398 117.598ZM24.2695 154.441L24.3429 154.323L34.4842 161.461L36.9942 163.199C37.5949 163.55 37.4622 163.697 36.542 163.431C32.0037 162.117 27.9472 158.914 24.2695 154.441ZM19.6733 154.764C26.9557 163.768 39.9287 167.44 50.5381 163.125C51.4997 162.746 55.3105 160.876 56.7539 159.589C58.4173 158.169 59.1311 158.066 59.0437 159.12C58.8829 160.991 57.9929 162.585 56.724 163.929C59.6585 161.956 62.1228 159.366 63.2769 154.85C64.2842 150.946 63.1143 145.889 60.868 142.539C60.0808 141.312 60.1244 140.947 60.8104 141.021C63.5405 141.283 65.553 142.877 66.9391 145.117C69.493 149.222 70.0758 155.54 69.13 159.47C68.6602 161.386 68.5749 161.59 68.8368 159.559C69.2451 156.166 69.4196 151.897 66.9967 148.782C65.2756 147.221 65.3908 149.85 65.0713 151.867C64.1079 160.742 56.2722 165.494 49.8499 168.361L49.8657 168.345C49.2074 168.637 48.567 168.898 47.9544 169.135C47.6314 169.266 47.2982 169.353 47.895 169.004C50.056 167.745 52.6376 165.889 52.3185 165.186C51.908 164.588 47.9684 166.181 43.1387 166.3C32.1505 166.474 22.8258 163.125 16.5524 153.606C12.2459 146.707 12.9775 137.554 15.4261 131.474C16.8119 128.007 15.5588 132.497 15.3527 133.869C14.2468 141.414 15.3236 148.476 19.6733 154.764Z" fill="#F39420"/>
<path fill-rule="evenodd" clip-rule="evenodd" d="M63.0571 156.986C64.9108 151.968 64.0644 146.781 61.0151 141.97C60.6938 141.517 61.1162 141.239 61.7605 141.868C64.7342 144.862 65.567 152.703 63.0571 156.986ZM28.2386 157.673L28.2825 157.615L33.3323 161.181L34.5734 162.043C34.8789 162.218 34.7756 162.353 34.3392 162.144C32.1624 161.12 30.1359 159.649 28.2386 157.673ZM45.0202 165.184C46.7848 164.823 48.6109 164.4 49.1937 164.191C53.3236 162.76 55.7743 161.283 57.7173 159.66C58.1674 159.194 58.911 159.001 58.1375 160.085C56.2005 162.265 52.0407 163.872 49.1063 164.703C47.7023 165.115 44.639 165.73 42.4383 165.817C34.105 166.312 26.8223 163.258 23.3647 160.347C24.1961 160.872 33.1279 167.13 45.0202 165.184ZM24.2853 142.496C27.9749 131.222 38.5864 127.086 52.6674 128.974C37.345 127.654 28.9682 132.439 24.8958 142.627C24.5328 143.55 24.2533 144.426 24.0374 145.333C23.833 146.27 23.6586 147.247 23.5258 148.2C23.3931 149.105 23.4226 149.719 23.365 149.734C23.2759 149.76 23.2622 148.694 23.365 147.265C23.5097 145.653 23.7895 144.048 24.2853 142.496ZM18.9458 145.551C17.9364 126.617 41.1817 118.445 57.4838 117.947C58.4293 117.875 58.5206 117.903 57.3806 118.213C48.7857 120.141 36.5125 122.95 28.5163 129.647C24.1385 133.329 20.7245 139.511 20.419 145.39C20.1694 150.303 21.9199 153.825 24.985 157.496C21.44 154.5 19.1895 150.289 18.9458 145.551ZM15.6027 131.693C13.7924 138.783 14.185 144.263 15.938 150.39C13.1503 144.632 13.3546 136.883 15.6027 131.693ZM41.4155 133.007C40.5136 133.14 40.3212 132.566 41.6515 132.366C56.6805 130.599 68.6739 139.673 70.0618 149.574C67.0996 137.991 55.4551 131.397 41.4155 133.007Z" fill="#FCDB38"/>
<path fill-rule="evenodd" clip-rule="evenodd" d="M112.147 147.16H117.647L117.665 134.613C117.665 134.337 117.635 134.032 117.766 133.783C117.94 133.43 118.305 133.184 118.711 133.184H118.773H137.014V127.876H117.738H117.605H117.459C114.746 127.876 112.498 129.922 112.176 132.566L112.133 132.977V133.228V133.462L112.147 147.16ZM84.2302 141.868H102.473L102.689 141.84C103.189 141.767 103.581 141.326 103.581 140.782V138.199H89.8056H89.5437C86.8294 138.199 84.5831 136.15 84.246 133.519C84.2025 133.227 84.2025 132.903 84.2165 132.614V127.916H89.7322V131.414L89.7463 131.855C89.7463 132.453 90.2719 132.933 90.8568 132.903H103.564L103.552 127.888H109.083V141.574C109.095 141.824 109.083 142.231 109.054 142.477C108.718 145.112 106.47 147.159 103.756 147.159H103.492H84.2302V141.868ZM174.078 127.876H179.434V135.011H182.528L190.1 127.876H198.025L187.108 137.466L197.966 147.191H190.041L182.528 140.071H179.434V147.191H174.078V127.876ZM139.29 127.876H149.461L155.211 140.637L160.961 127.863C164.389 127.863 167.775 127.876 171.206 127.876V147.176H165.862V133.241H164.343L158.116 147.176H152.307L146.091 133.241H144.632V147.176H139.29C139.29 140.742 139.274 134.326 139.274 127.888H139.29V127.876H139.29Z" fill="black"/>
<path fill-rule="evenodd" clip-rule="evenodd" d="M84.2165 150.682H89.207V162.422C89.1793 163.022 89.4984 163.607 90.2459 163.637H101.363C101.916 163.667 102.4 163.199 102.4 162.643L102.414 150.668H107.377V163.373V163.826V163.844L107.347 164.223C107.039 166.663 104.938 168.579 102.414 168.579H89.1793C86.6394 168.579 84.5536 166.663 84.2464 164.223L84.2169 163.844V163.826V163.373V150.682H84.2165ZM119.56 150.668L124.901 162.509L130.241 150.682H139.829V168.579H134.853V155.639H133.423L127.616 168.579H122.187L116.378 155.639H115.022V168.579H110.045C110.045 162.599 110.031 156.632 110.031 150.668H119.56ZM151.928 150.668L157.283 162.509L162.622 150.682H172.195V168.579H167.221V155.639H165.787L159.982 168.579H154.567L148.762 155.639H147.403V168.579H142.411V150.668H151.928ZM179.858 159.559V162.323V162.642C179.872 163.198 180.352 163.651 180.895 163.623H192.014C192.581 163.637 193.064 163.198 193.064 162.629V162.013H198.01V163.359C198.039 163.814 197.996 164.235 197.895 164.691C197.441 166.676 195.791 168.243 193.751 168.535C193.441 168.579 193.124 168.595 192.801 168.595H180.062C179.608 168.595 179.172 168.563 178.718 168.462C176.706 168.007 175.145 166.3 174.881 164.207C174.834 163.931 174.834 163.637 174.851 163.359V159.559V155.947C174.834 155.669 174.834 155.377 174.881 155.098C175.159 152.922 176.822 151.18 178.952 150.801C179.317 150.727 179.695 150.713 180.062 150.713H192.801C193.064 150.713 193.324 150.713 193.588 150.741C195.761 150.977 197.528 152.641 197.938 154.777C198.01 155.171 198.025 155.522 198.01 155.947V157.188H193.064V156.677C193.064 156.459 192.991 156.239 192.858 156.078C192.668 155.83 192.335 155.669 192.014 155.683H180.895H180.705C180.237 155.756 179.886 156.149 179.858 156.632V156.91V159.559Z" fill="#F39420"/>
</svg>