<svg viewBox="0 0 189 61" fill="none" xmlns="http://www.w3.org/2000/svg">
<path d="M34.3224 22.5231C34.3224 44.0169 34.3375 44.9251 34.5946 45.1521C34.8516 45.3792 35.4413 45.4094 39.8866 45.4094H44.9064L45.1181 45.7576C45.3298 46.0603 45.2542 46.7263 44.3016 52.9777C43.7119 56.7618 43.213 60.0161 43.1676 60.1978C43.1222 60.3794 43.1978 60.6216 43.3339 60.773C43.5456 60.9849 44.1202 61 48.3235 60.9697C51.2114 60.9395 53.1166 60.8638 53.2073 60.773C53.4492 60.5308 65.5906 21.963 65.515 21.6754C65.4242 21.3424 50.9393 11.3069 50.7881 11.4583C50.7125 11.534 49.8809 16.6501 48.9283 22.8258C47.5826 31.6352 47.1442 34.1327 46.9325 34.3749C46.7208 34.602 46.4638 34.6625 45.5868 34.6625C44.2411 34.6625 43.9236 34.4657 43.9538 33.6484C43.969 33.3305 44.8006 27.7452 45.7985 21.2365C46.7964 14.7278 47.5826 9.29379 47.5373 9.1727C47.4163 8.86996 34.8818 0.151352 34.5643 0.151352C34.3526 0.151352 34.3224 2.31587 34.3224 22.5231Z" fill="#1840A7"/>
<path d="M23.9652 5.19168C20.3969 7.8103 17.4182 10.0505 17.3275 10.1867C17.2217 10.3684 17.9777 15.651 20.1096 29.3041C22.2566 43.154 22.9975 48.2247 22.8766 48.4215C22.68 48.7393 20.3213 48.8604 19.9282 48.5577C19.7165 48.3912 19.157 45.0158 16.9344 30.7269C15.4375 21.0244 14.1826 13.0021 14.1372 12.881C14.0918 12.7751 13.9406 12.7145 13.7894 12.7448C13.3812 12.8659 0.241918 22.5381 0.120958 22.8257C0.0453581 22.9922 2.13192 29.9096 5.86656 41.9279C11.3854 59.6981 11.7331 60.7728 12.096 60.8636C12.5496 60.9847 38.7979 61.0301 39.2666 60.9091C39.4481 60.8636 39.6295 60.7123 39.69 60.5761C39.7958 60.3036 41.4288 49.8292 41.4288 49.4356C41.4288 49.3145 41.323 49.1026 41.1869 48.9815C40.9903 48.7696 40.325 48.7393 36.2275 48.7393C31.8427 48.7393 31.4798 48.7242 31.253 48.4669C31.0111 48.2096 30.996 46.2721 30.9658 24.3545C30.9204 2.67903 30.9053 0.529648 30.6785 0.484238C30.5424 0.469101 27.5184 2.57307 23.9652 5.19168Z" fill="#1840A7"/>
<path d="M178.779 11.3372C179.369 12.4725 180.457 12.9265 182.287 12.8357C183.39 12.7752 183.648 12.7146 184.177 12.3211C184.509 12.0789 184.933 11.6551 185.099 11.3826L185.401 10.8983H184.479C183.708 10.8983 183.511 10.9588 183.194 11.2767C182.876 11.5945 182.665 11.6551 181.984 11.6551C181.319 11.6551 181.077 11.5794 180.714 11.2767C180.351 10.9739 180.094 10.8983 179.414 10.8983H178.552L178.779 11.3372Z" fill="#1840A7"/>
<path d="M70.1568 14.637C70.1568 15.8933 70.2324 16.4079 70.4441 16.8923C70.8826 17.8762 71.3513 18.0124 74.1485 18.0124H76.5072V19.6774V21.3424H77.9436H79.38V17.1799V13.0174H77.9436H76.5072V14.531V16.0447H75.1313C73.1959 16.0447 73.1808 16.0295 73.1808 14.3797V13.0174H71.6688H70.1568V14.637Z" fill="#1840A7"/>
<path d="M81.7085 13.2293C81.4515 13.3504 81.1944 13.5471 81.1339 13.6985C80.9827 14.1223 81.0281 20.4191 81.1944 20.737C81.4515 21.2213 82.3435 21.3424 85.8514 21.3424H89.208V20.3586V19.3747H86.8493C85.5187 19.3747 84.3696 19.3141 84.2033 19.2233C84.0067 19.1022 83.916 18.9055 83.916 18.5422V18.0124H86.4864H89.0568V17.1042V16.196H86.4864H83.916V15.7419C83.916 15.4543 84.0219 15.2424 84.2033 15.1365C84.3696 15.0457 85.5187 14.9851 86.8644 14.9851H89.2231L89.1778 14.0315L89.1324 13.0931L85.6548 13.0628C82.9937 13.0325 82.0714 13.0779 81.7085 13.2293Z" fill="#1840A7"/>
<path d="M94.243 13.1687C94.0615 13.2444 93.8045 13.4563 93.6835 13.6531C93.366 14.1526 90.1152 20.9943 90.1152 21.1911C90.1152 21.2819 90.6898 21.3424 91.6121 21.3424H93.0938L94.2883 18.4362C95.1199 16.4079 95.513 15.6057 95.6038 15.7571C95.6794 15.8782 96.2237 17.1648 96.8285 18.6179L97.9171 21.2667L99.4745 21.3122C100.699 21.3424 101.017 21.3122 100.956 21.1608C100.926 21.0548 100.079 19.2687 99.0965 17.2102C97.6601 14.1677 97.2367 13.4109 96.9041 13.2293C96.4354 13.0022 94.7722 12.9568 94.243 13.1687Z" fill="#1840A7"/>
<path d="M103.602 13.1687C102.982 13.3201 102.529 13.7136 102.272 14.3342C102 14.97 102 16.968 102.272 17.6189C102.544 18.2849 103.194 18.7692 103.814 18.7692C104.101 18.7692 104.328 18.8146 104.328 18.86C104.328 18.9055 103.769 19.4806 103.088 20.1315L101.833 21.3273L103.602 21.3424H105.356L106.581 19.8742C107.549 18.7087 107.806 18.3 107.806 17.9216C107.806 17.2707 107.503 17.0588 106.324 16.968C105.432 16.8923 105.296 16.8318 105.099 16.4685C104.918 16.1658 104.903 15.9538 105.024 15.636C105.16 15.2122 105.175 15.2122 106.656 15.1667C107.76 15.1365 108.199 15.1819 108.289 15.3181C108.35 15.4241 108.41 16.8318 108.41 18.4211V21.3424H109.847H111.283V17.6189C111.283 15.4846 111.223 13.7893 111.132 13.6228C111.056 13.4715 110.769 13.2747 110.512 13.1839C109.968 12.9871 104.388 12.972 103.602 13.1687Z" fill="#1840A7"/>
<path d="M113.612 13.1687C112.856 13.4715 112.795 13.7591 112.795 17.2102C112.795 20.3888 112.795 20.4191 113.158 20.8429L113.521 21.2667L116.832 21.3122C120.597 21.3576 121.126 21.2667 121.671 20.4494C121.958 20.0256 122.018 19.738 122.018 18.739C122.018 16.4533 121.625 16.196 118.163 16.196H115.819V15.6663V15.1365H118.692H121.565V14.0769V13.0174L117.755 13.0325C115.653 13.0325 113.778 13.0931 113.612 13.1687ZM118.919 18.6179V19.1476L117.377 19.193L115.819 19.2385V18.6179V17.9973L117.377 18.0427L118.919 18.0881V18.6179Z" fill="#1840A7"/>
<path d="M123.379 16.6653C123.379 18.8752 123.44 20.4191 123.53 20.6007C123.772 21.0397 124.498 21.3424 125.345 21.3424C126.736 21.3424 126.948 21.1759 128.641 18.5573C129.503 17.2556 130.274 16.196 130.365 16.196C130.486 16.196 130.501 16.9226 130.425 18.7692L130.334 21.3424H131.846H133.358V17.861C133.358 13.9861 133.298 13.6834 132.421 13.2293C132.088 13.0476 131.68 13.0022 131 13.0476C129.775 13.1233 129.654 13.2444 127.87 15.9993C127.099 17.195 126.433 18.1638 126.373 18.1638C126.297 18.1638 126.252 16.9983 126.252 15.5906V13.0174H124.816H123.379V16.6653Z" fill="#1840A7"/>
<path d="M134.87 17.1799V21.3424H136.307H137.743V19.6774V18.0124H139.482H141.221V19.6774V21.3424H142.657H144.094V17.1799V13.0174H142.657H141.221V14.531V16.0598L139.527 16.0144L137.819 15.969L137.773 14.4856L137.728 13.0174H136.307H134.87V17.1799Z" fill="#1840A7"/>
<path d="M148.07 13.1687C146.8 13.4261 145.908 14.1829 145.606 15.2576C145.53 15.5603 145.454 16.4988 145.454 17.3313C145.454 19.0265 145.696 19.7682 146.452 20.4494C147.178 21.1002 147.768 21.2213 150.716 21.3122L153.468 21.3727V20.298V19.2233H151.502C149.446 19.2233 148.781 19.072 148.569 18.5422C148.524 18.406 148.478 17.7854 148.478 17.1496C148.478 16.1052 148.509 15.9841 148.917 15.5754L149.355 15.1365H151.336H153.317V14.0769V13.0174L151.019 13.0325C149.748 13.0476 148.418 13.1082 148.07 13.1687Z" fill="#1840A7"/>
<path d="M154.829 17.1799V21.3424H156.265H157.702V17.1799V13.0174H156.265H154.829V17.1799Z" fill="#1840A7"/>
<path d="M159.849 14.4856C159.198 15.303 158.548 16.1355 158.412 16.3474C157.898 17.0891 158.049 17.4069 159.818 19.4352L161.482 21.3424H163.266L165.035 21.3273L162.963 19.3293C161.814 18.2243 160.877 17.2404 160.877 17.1345C160.877 16.9529 163.523 13.971 164.097 13.4866C164.249 13.3806 164.354 13.2293 164.354 13.1536C164.354 13.0779 163.614 13.0174 162.691 13.0174H161.043L159.849 14.4856Z" fill="#1840A7"/>
<path d="M165.443 16.7258L165.488 20.4342L165.912 20.8429C166.29 21.2365 166.411 21.2667 167.515 21.2667C169.011 21.2667 168.996 21.2819 170.886 18.3757C171.657 17.1799 172.368 16.196 172.459 16.196C172.565 16.196 172.595 17.0134 172.549 18.7692L172.474 21.3576L173.971 21.3122L175.468 21.2667V17.861C175.468 14.0012 175.377 13.5774 174.545 13.2293C173.744 12.8963 172.504 12.9568 171.93 13.3504C171.657 13.5471 170.856 14.637 170.055 15.8782C169.284 17.0739 168.573 18.0881 168.452 18.1335C168.286 18.194 168.271 17.7702 168.361 15.6057L168.467 13.0174H166.94H165.398L165.443 16.7258Z" fill="#1840A7"/>
<path d="M176.965 13.2293C176.783 13.6985 176.98 20.1921 177.176 20.5402C177.463 21.0548 178.144 21.3424 179.051 21.3424C180.351 21.3424 180.639 21.0851 182.332 18.4968C183.164 17.2404 183.92 16.196 184.026 16.196C184.147 16.196 184.162 16.8923 184.086 18.7692L183.965 21.3424H185.507H187.034V17.9367C187.034 14.1375 186.944 13.6682 186.142 13.2596C185.568 12.9568 184.131 12.9417 183.572 13.2444C183.285 13.3806 182.635 14.2586 181.652 15.8025C180.82 17.1042 180.094 18.1335 180.004 18.1184C179.913 18.073 179.868 17.1345 179.913 15.5452L179.958 13.0174H178.507C177.373 13.0174 177.025 13.0628 176.965 13.2293Z" fill="#1840A7"/>
<path d="M152.319 26.6251C152.652 27.2608 153.544 27.9722 154.179 28.1084C155.993 28.4868 157.656 28.0176 158.458 26.9127L158.941 26.2618L158.08 26.2164C157.384 26.1861 157.142 26.2315 156.885 26.4737C156.114 27.2002 154.844 27.2305 154.209 26.5494C153.922 26.2466 153.725 26.1861 152.984 26.1861H152.092L152.319 26.6251Z" fill="#1840A7"/>
<path d="M88.3915 28.5323C87.8472 28.8199 87.8623 28.8047 86.1689 31.4385C85.4129 32.6342 84.7325 33.5576 84.6569 33.5122C84.5662 33.4667 84.551 32.4072 84.6115 30.939L84.7174 28.4566H83.1751H81.6329L81.6782 32.0439C81.7236 35.8886 81.769 36.1308 82.5098 36.4638C82.9937 36.6908 84.5662 36.6757 85.0651 36.4486C85.3222 36.3275 86.0026 35.4345 87.0307 33.8754C87.8926 32.5586 88.6637 31.4839 88.7393 31.4839C88.8451 31.4839 88.8602 32.3921 88.7998 34.0571L88.709 36.6303H90.2362H91.7784L91.7633 33.3305C91.7633 29.7583 91.6726 29.2134 90.9922 28.7139C90.4327 28.3052 88.9963 28.1993 88.3915 28.5323Z" fill="#1840A7"/>
<path d="M116.772 28.4566C115.91 28.6382 115.32 28.9712 114.867 29.5161C114.337 30.1519 114.156 30.8633 114.156 32.4375C114.156 35.8734 115.063 36.6303 119.221 36.6303C121.852 36.6303 122.669 36.4335 123.425 35.5859C124.075 34.8593 124.211 34.2993 124.196 32.3164C124.181 30.061 123.697 29.168 122.17 28.6079C121.535 28.3809 117.664 28.2598 116.772 28.4566ZM120.295 30.5C121.02 30.8027 121.323 31.5444 121.217 32.8462C121.157 33.6938 121.081 33.8754 120.673 34.2387C120.249 34.6171 120.083 34.6625 119.206 34.6625C118.662 34.6625 118.087 34.5868 117.921 34.5112C117.437 34.2387 117.18 33.5424 117.18 32.4072C117.18 31.499 117.24 31.2871 117.558 30.8935C117.77 30.6514 118.102 30.4092 118.284 30.3789C119.01 30.2427 119.781 30.2881 120.295 30.5Z" fill="#1840A7"/>
<path d="M157.127 28.6079C156.689 28.8804 155.887 30.0005 154.012 32.9672C153.786 33.3305 153.559 33.5878 153.498 33.5273C153.438 33.4667 153.423 32.3164 153.438 30.939L153.498 28.4566H151.971H150.444V31.5898C150.444 33.3305 150.52 35.0107 150.595 35.3437C150.807 36.2821 151.321 36.6303 152.5 36.6303C153.06 36.6303 153.665 36.5395 153.906 36.4184C154.179 36.267 154.889 35.3285 155.872 33.8452C156.734 32.5434 157.49 31.4839 157.581 31.4839C157.686 31.4839 157.702 32.3618 157.626 34.0571L157.505 36.6303H159.047H160.574V33.2094C160.574 29.3648 160.484 28.9712 159.592 28.5474C158.881 28.2144 157.732 28.2447 157.127 28.6079Z" fill="#1840A7"/>
<path d="M70.187 32.165C70.2324 35.7826 70.2324 35.8734 70.5802 36.2065C70.9128 36.5546 70.9582 36.5546 75.8268 36.6L80.7408 36.6454V35.6464V34.6625H80.136H79.5312V31.5596V28.4566H78.0192H76.5072V31.5596V34.6625H75.1918C72.9842 34.6625 73.1808 34.9653 73.1808 31.4687V28.4566H71.6688H70.1417L70.187 32.165Z" fill="#1840A7"/>
<path d="M93.2904 32.5434V36.6303H94.7268H96.1632V34.9653V33.2851L97.8718 33.3305L99.5652 33.3759L99.6106 34.9955L99.6559 36.6303H101.077H102.514V32.5434V28.4566H101.077H99.6408V29.8945V31.3325H97.902H96.1632V29.8945V28.4566H94.7268H93.2904V32.5434Z" fill="#1840A7"/>
<path d="M104.328 32.5434V36.6303H105.764H107.201V32.5434V28.4566H105.764H104.328V32.5434Z" fill="#1840A7"/>
<path d="M109.257 29.8945C107.609 31.938 107.428 32.271 107.7 32.7705C107.806 32.9975 108.577 33.9511 109.393 34.9047L110.89 36.6303H112.629H114.383L112.372 34.6171C111.283 33.5122 110.376 32.5283 110.376 32.4223C110.376 32.3164 111.162 31.3779 112.13 30.3335L113.869 28.4566H112.145H110.406L109.257 29.8945Z" fill="#1840A7"/>
<path d="M125.874 28.835C125.496 29.1983 125.496 29.2134 125.496 32.3466C125.496 34.0722 125.541 35.6464 125.587 35.8432C125.783 36.5395 126.282 36.6303 129.73 36.6303C133.207 36.6303 133.646 36.5546 134.235 35.7978C134.508 35.4648 134.568 35.1772 134.568 34.3598C134.568 33.3911 134.538 33.3002 134.099 32.937C133.842 32.7251 133.494 32.5434 133.313 32.5434C133.041 32.5283 133.071 32.4829 133.494 32.2558C133.767 32.1045 134.099 31.8169 134.205 31.6201C134.477 31.1206 134.462 30.0459 134.175 29.4404C133.752 28.5474 133.343 28.4566 129.594 28.4566H126.237L125.874 28.835ZM131.393 30.6514C131.635 30.939 131.453 31.4385 131.045 31.5444C130.864 31.5898 130.213 31.6352 129.609 31.6352C128.414 31.6352 128.248 31.5141 128.429 30.8027C128.52 30.4395 128.565 30.4243 129.866 30.4243C130.848 30.4243 131.257 30.4849 131.393 30.6514ZM131.468 33.497C131.831 33.7695 131.68 34.4355 131.211 34.5717C130.486 34.7533 128.853 34.6777 128.611 34.4203C128.369 34.1782 128.278 33.5878 128.475 33.4062C128.671 33.2094 131.166 33.2851 131.468 33.497Z" fill="#1840A7"/>
<path d="M135.929 32.0742C135.929 34.0722 135.974 35.8129 136.02 35.9491C136.246 36.5395 136.836 36.6303 140.178 36.6303C143.111 36.6303 143.443 36.6 144.033 36.3275C144.834 35.934 145.152 35.2983 145.152 34.0722C145.152 32.9672 144.819 32.0591 144.275 31.6806C143.927 31.4536 143.474 31.3931 141.342 31.3628L138.802 31.3022V29.8794V28.4566H137.365H135.929V32.0742ZM141.841 33.3002C142.022 33.4062 142.128 33.6181 142.128 33.9057C142.128 34.5112 141.78 34.6625 140.359 34.6625C138.998 34.6625 138.802 34.5414 138.802 33.7241V33.1489H140.178C140.934 33.1489 141.674 33.2246 141.841 33.3002Z" fill="#1840A7"/>
<path d="M146.059 32.5434V36.6303H147.571H149.083V32.5434V28.4566H147.571H146.059V32.5434Z" fill="#1840A7"/>
<path d="M70.308 42.5032V43.593L72.8482 43.6233L75.3732 43.6687V44.1228C75.3732 44.7131 75.1162 44.7737 72.5458 44.7888L70.4592 44.804V45.6365V46.469H72.8633C75.4488 46.469 75.6756 46.5295 75.5698 47.2561C75.5244 47.6042 75.5093 47.6042 72.9238 47.6496L70.308 47.6799V48.7395V49.799L73.453 49.7839C77.1271 49.7687 77.7773 49.6476 78.2763 48.906C78.9567 47.8918 78.6391 45.9695 77.7471 45.7727C77.0364 45.6213 77.0213 45.6062 77.4295 45.4397C78.0797 45.1824 78.3216 44.698 78.3216 43.6687C78.3216 42.6243 78.1099 42.2156 77.3691 41.8221C76.9759 41.6253 76.2804 41.5648 73.6042 41.5042L70.308 41.4285V42.5032Z" fill="#1840A7"/>
<path d="M83.2356 41.6102C82.6913 41.8372 82.4494 42.261 80.8164 45.7878C79.9243 47.695 79.1381 49.3903 79.0625 49.5265C78.9264 49.7839 79.0322 49.799 80.4838 49.799H82.0714L82.404 48.9665L82.7366 48.134H84.4452H86.1689L86.5469 48.9665L86.9249 49.799H88.452H89.964L89.7523 49.2995C89.5709 48.8908 87.7111 44.8948 86.6376 42.6243C86.3806 42.0945 86.1386 41.8372 85.7909 41.6859C85.2466 41.4588 83.7194 41.4134 83.2356 41.6102ZM84.6569 44.2288C84.7325 44.4256 84.929 44.9402 85.1105 45.364L85.428 46.1662H84.4603H83.4775L83.9462 45.031C84.2033 44.4104 84.4301 43.8958 84.4603 43.8958C84.5057 43.8958 84.5813 44.0471 84.6569 44.2288Z" fill="#1840A7"/>
<path d="M91.597 41.5648C91.3702 41.6102 91.0375 41.8221 90.8712 42.034C90.5839 42.3973 90.5688 42.6395 90.5688 45.5759C90.5688 49.0271 90.6444 49.3903 91.3702 49.6476C91.9599 49.8444 97.5694 49.8444 98.3103 49.6476C98.6127 49.5568 99.036 49.2844 99.2477 49.0271C99.5803 48.6335 99.6408 48.4216 99.6408 47.5437C99.6408 46.6355 99.5955 46.469 99.2477 46.1057C99.0209 45.8938 98.7185 45.7122 98.5673 45.7122C98.1439 45.7122 98.2195 45.5154 98.7034 45.2883C99.8374 44.7888 99.7315 42.4578 98.5522 41.8372C98.1439 41.6253 97.5543 41.5648 95.0292 41.5345C93.366 41.5194 91.8238 41.5345 91.597 41.5648ZM96.511 43.9261C96.6319 44.1077 96.6168 44.2439 96.4807 44.4104C96.3144 44.6072 95.9667 44.6526 94.8629 44.6526C93.5626 44.6526 93.4416 44.6223 93.4416 44.365C93.4416 43.6233 93.5475 43.5779 94.999 43.6233C96.0725 43.6536 96.39 43.7293 96.511 43.9261ZM96.6168 46.696C96.7227 46.8171 96.768 47.0744 96.7075 47.3015C96.6168 47.6799 96.5866 47.6799 95.1199 47.6799C93.5172 47.6799 93.4416 47.6345 93.4416 46.8323C93.4416 46.469 93.4567 46.469 94.9385 46.469C96.0725 46.469 96.4656 46.5295 96.6168 46.696Z" fill="#1840A7"/>
<path d="M103.073 41.6859C101.168 42.2156 100.578 43.4114 100.729 46.363C100.82 48.0129 101.228 48.7849 102.287 49.3298C103.013 49.7082 103.134 49.7233 105.764 49.7233C108.819 49.7233 109.212 49.6174 110.043 48.6789C110.573 48.0735 110.83 47.0744 110.83 45.6365C110.83 43.5174 110.27 42.3821 108.97 41.8372C108.108 41.4891 104.147 41.3831 103.073 41.6859ZM106.808 43.5931C107.518 43.8655 107.821 44.5769 107.775 45.8484C107.73 46.8777 107.685 46.9836 107.231 47.3923C106.808 47.7707 106.626 47.8313 105.84 47.8313C104.207 47.8313 103.723 47.3166 103.723 45.5911C103.723 44.471 104.01 43.8655 104.691 43.5931C105.129 43.4114 106.339 43.4114 106.808 43.5931Z" fill="#1840A7"/>
<path d="M115.366 41.7464C114.897 41.9734 114.7 42.2913 113.536 44.804C112.281 47.5134 112.221 47.6042 111.752 47.6496L111.283 47.695V48.7546V49.799H116.802H122.321V48.7395V47.6799H121.837C121.338 47.6799 121.338 47.6799 120.038 44.8342C118.541 41.595 118.435 41.4739 116.802 41.4739C116.243 41.4739 115.698 41.5799 115.366 41.7464ZM117.634 45.7878C118.042 46.7868 118.39 47.6194 118.39 47.6345C118.39 47.6648 117.679 47.6799 116.802 47.6799C115.925 47.6799 115.214 47.6496 115.214 47.6042C115.214 47.5134 116.56 44.1985 116.681 44.0017C116.787 43.8201 116.802 43.8352 117.634 45.7878Z" fill="#1840A7"/>
</svg>
